# xmcd
#
# Track frame offsets:
#	150
#	16775
#	32600
#	47925
#	67175
#	87900
#	107300
#	129350
#	148400
#	169200
#
# Disc length: 2619 seconds
#
# Revision: 1
# Processed by: cddbd v1.5.1PL0 Copyright (c) Steve Scherf et al.
# Submitted via: CDex 1.50Beta5
#
DISCID=850a390a
DTITLE=谷村新司 - 半空 NAKAZORA Disc 1
DYEAR=2002
DGENRE=Pop
TTITLE0=貘(バク)
TTITLE1=東京綺譚
TTITLE2=門司港レトロ
TTITLE3=グランドステーション
TTITLE4=カーニバルの午後
TTITLE5=つらつらと
TTITLE6=夏草
TTITLE7=遮断機の向こう
TTITLE8=イカロス
TTITLE9=流星
EXTD=
EXTT0=
EXTT1=
EXTT2=
EXTT3=
EXTT4=
EXTT5=
EXTT6=
EXTT7=
EXTT8=
EXTT9=
PLAYORDER=
